HIERARCHY
ROOT hip
{
  OFFSET 0 0 0
  CHANNELS 6 Xposition Yposition Zposition Zrotation Yrotation Xrotation
  JOINT abdomen
  {
    OFFSET 0 20.6881 -0.73152
    CHANNELS 3 Zrotation Xrotation Yrotation
    JOINT chest
    {
      OFFSET 0 11.7043 -0.48768
      CHANNELS 3 Zrotation Xrotation Yrotation
      JOINT neck
      {
        OFFSET 0 22.1894 -2.19456
        CHANNELS 3 Zrotation Xrotation Yrotation
        JOINT head
        {
          OFFSET -0.24384 7.07133 1.2192
          CHANNELS 3 Zrotation Xrotation Yrotation
          JOINT leftEye
          {
            OFFSET 4.14528 8.04674 8.04672
            CHANNELS 3 Zrotation Xrotation Yrotation
            End Site
            {
              OFFSET 1 0 0
            }
          }
          JOINT rightEye
          {
            OFFSET -3.6576 8.04674 8.04672
            CHANNELS 3 Zrotation Xrotation Yrotation
            End Site
            {
              OFFSET 1 0 0
            }
          }
        }
      }
      JOINT rCollar
      {
        OFFSET -2.68224 19.2634 -4.8768
        CHANNELS 3 Zrotation Xrotation Yrotation
        JOINT rShldr
        {
          OFFSET -8.77824 -1.95073 1.46304
          CHANNELS 3 Zrotation Xrotation Yrotation
          JOINT rForeArm
          {
            OFFSET -28.1742 -1.7115 0.48768
            CHANNELS 3 Zrotation Xrotation Yrotation
            JOINT rHand
            {
              OFFSET -22.5879 0.773209 7.07136
              CHANNELS 3 Zrotation Xrotation Yrotation
              JOINT rThumb1
              {
                OFFSET -1.2192 -0.487915 3.41376
                CHANNELS 3 Zrotation Xrotation Yrotation
                JOINT rThumb2
                {
                  OFFSET -3.37035 -0.52449 3.41376
                  CHANNELS 3 Zrotation Xrotation Yrotation
                  End Site
                  {
                    OFFSET -1.78271 -1.18214 1.43049
                  }
                }
              }
              JOINT rIndex1
              {
                OFFSET -7.75947 0.938293 5.60832
                CHANNELS 3 Zrotation Xrotation Yrotation
                JOINT rIndex2
                {
                  OFFSET -2.54057 -0.884171 1.56538
                  CHANNELS 3 Zrotation Xrotation Yrotation
                  End Site
                  {
                    OFFSET -1.62519 -0.234802 1.16502
                  }
                }
              }
              JOINT rMid1
              {
                OFFSET -8.24714 1.18213 3.41376
                CHANNELS 3 Zrotation Xrotation Yrotation
                JOINT rMid2
                {
                  OFFSET -3.10165 -0.590103 1.0647
                  CHANNELS 3 Zrotation Xrotation Yrotation
                  End Site
                  {
                    OFFSET -2.48547 -0.328903 0.83742
                  }
                }
              }
              JOINT rRing1
              {
                OFFSET -8.82822 0.546677 1.51678
                CHANNELS 3 Zrotation Xrotation Yrotation
                JOINT rRing2
                {
                  OFFSET -2.60934 -0.819778 -0.0198488
                  CHANNELS 3 Zrotation Xrotation Yrotation
                  End Site
                  {
                    OFFSET -2.33842 -0.294052 0.168128
                  }
                }
              }
              JOINT rPinky1
              {
                OFFSET -8.27202 -0.0477905 -0.4584
                CHANNELS 3 Zrotation Xrotation Yrotation
                JOINT rPinky2
                {
                  OFFSET -1.82734 -0.647385 -0.700984
                  CHANNELS 3 Zrotation Xrotation Yrotation
                  End Site
                  {
                    OFFSET -1.69225 -0.51767 -0.607171
                  }
                }
              }
            }
          }
        }
      }
      JOINT lCollar
      {
        OFFSET 2.68224 19.2634 -4.8768
        CHANNELS 3 Zrotation Xrotation Yrotation
        JOINT lShldr
        {
          OFFSET 8.77824 -1.95073 1.46304
          CHANNELS 3 Zrotation Xrotation Yrotation
          JOINT lForeArm
          {
            OFFSET 28.1742 -1.7115 0.48768
            CHANNELS 3 Zrotation Xrotation Yrotation
            JOINT lHand
            {
              OFFSET 22.5879 0.773209 7.07136
              CHANNELS 3 Zrotation Xrotation Yrotation
              JOINT lThumb1
              {
                OFFSET 1.2192 -0.487915 3.41376
                CHANNELS 3 Zrotation Xrotation Yrotation
                JOINT lThumb2
                {
                  OFFSET 3.37035 -0.52449 3.41376
                  CHANNELS 3 Zrotation Xrotation Yrotation
                  End Site
                  {
                    OFFSET 1.78271 -1.18214 1.43049
                  }
                }
              }
              JOINT lIndex1
              {
                OFFSET 7.75947 0.938293 5.60832
                CHANNELS 3 Zrotation Xrotation Yrotation
                JOINT lIndex2
                {
                  OFFSET 2.54057 -0.884171 1.56538
                  CHANNELS 3 Zrotation Xrotation Yrotation
                  End Site
                  {
                    OFFSET 1.62519 -0.234802 1.16502
                  }
                }
              }
              JOINT lMid1
              {
                OFFSET 8.24714 1.18213 3.41376
                CHANNELS 3 Zrotation Xrotation Yrotation
                JOINT lMid2
                {
                  OFFSET 3.10165 -0.590103 1.0647
                  CHANNELS 3 Zrotation Xrotation Yrotation
                  End Site
                  {
                    OFFSET 2.48547 -0.328903 0.83742
                  }
                }
              }
              JOINT lRing1
              {
                OFFSET 8.82822 0.546677 1.51678
                CHANNELS 3 Zrotation Xrotation Yrotation
                JOINT lRing2
                {
                  OFFSET 2.60934 -0.819778 -0.0198488
                  CHANNELS 3 Zrotation Xrotation Yrotation
                  End Site
                  {
                    OFFSET 2.33842 -0.294052 0.168128
                  }
                }
              }
              JOINT lPinky1
              {
                OFFSET 8.27202 -0.0477905 -0.4584
                CHANNELS 3 Zrotation Xrotation Yrotation
                JOINT lPinky2
                {
                  OFFSET 1.82734 -0.647385 -0.700984
                  CHANNELS 3 Zrotation Xrotation Yrotation
                  End Site
                  {
                    OFFSET 1.69225 -0.51767 -0.607171
                  }
                }
              }
            }
          }
        }
      }
    }
  }
  JOINT rButtock
  {
    OFFSET -8.77824 4.35084 1.2192
    CHANNELS 3 Zrotation Xrotation Yrotation
    JOINT rThigh
    {
      OFFSET 0 -1.70687 -2.19456
      CHANNELS 3 Zrotation Xrotation Yrotation
      JOINT rShin
      {
        OFFSET 0 -36.8199 0.73152
        CHANNELS 3 Zrotation Xrotation Yrotation
        JOINT rFoot
        {
          OFFSET 0.73152 -45.1104 -5.12064
          CHANNELS 3 Zrotation Xrotation Yrotation
          End Site
          {
            OFFSET -1.1221 -3.69964 12.103
          }
        }
      }
    }
  }
  JOINT lButtock
  {
    OFFSET 8.77824 4.35084 1.2192
    CHANNELS 3 Zrotation Xrotation Yrotation
    JOINT lThigh
    {
      OFFSET 0 -1.70687 -2.19456
      CHANNELS 3 Zrotation Xrotation Yrotation
      JOINT lShin
      {
        OFFSET 0 -36.8199 0.73152
        CHANNELS 3 Zrotation Xrotation Yrotation
        JOINT lFoot
        {
          OFFSET -0.73152 -45.1104 -5.12064
          CHANNELS 3 Zrotation Xrotation Yrotation
          End Site
          {
            OFFSET 1.1221 -3.69964 12.103
          }
        }
      }
    }
  }
}
MOTION
Frames:	6
Frame Time:	0.03333
52.2382 59.487500000000004 37.459199999999996 -179.242622 36.286601 179.329459 -4.951522 14.222129 -36.01328 8.884906 0.439371 38.452674 2.417154 11.306944 23.960217 -19.839467 -22.607879 -54.793784 -50.616585 10.421145 -21.830803 -1.842998 -0.92951 53.524926 -145.953086 39.478407 148.79144 173.228598 63.102967 153.162233 -14.386895 79.59377 99.047429 -10.995644 45.288254 1.400599 -9.070119 12.758533 9.121712 -76.12728 22.883443 57.707783 4.917975 -9.11294 -15.563973 -172.196674 1.459604 76.839466 -166.282543 -4.763703 147.712726 159.209909 0.065632 160.831299 29.27738 11.93296 -9.080022 -28.79709 1.369204 -8.331415 -98.424009 -31.613613 -136.109265 -127.695279 -9.734945 -103.056345 7.014155 37.370282 -9.902942 -111.853244 -53.596257 -43.250442 -160.171511 -70.8811 -22.483205 148.411342 24.384776 -127.494584 169.136998 -14.99732 -90.968409 -90.818625 -69.273061 -52.27457 -7.836955 -0.925224 19.47579 -17.894928 -51.548887 -15.226487 -5.664234 0.43767 -16.082703 164.069598 -25.880065 -167.372421 -5.109261 -0.998046 3.598462 165.495906 -8.332081 -138.983334 -18.516392 15.669263 -11.840567 24.139999 -38.759212 15.86554 -175.303493 89.62604 -0.0 155.431601 19.260426 8.089953 -5.729642 73.230874 44.932564 -156.796109 -17.786669 48.919134 -171.402661 57.712184 0.0 -170.888777 39.339042 47.032259 72.168816 47.960058 86.447848 93.672142 71.242296 152.659938
53.5112 59.650000000000006 37.832300000000004 -179.275599 35.307903 179.870604 -4.525494 13.016103 -76.423726 6.359204 4.955431 79.398564 -10.412559 18.332518 -58.876902 33.492504 -13.696564 33.42724 -33.190086 9.209408 -30.246265 -8.524568 -5.535968 65.944535 -158.663111 -64.059578 177.19685 73.532158 55.42984 -60.214249 143.14652 -5.590443 53.352316 169.256018 -3.379123 143.628502 -86.204339 36.95237 54.486984 10.144767 -40.320232 4.509384 -75.740686 45.835592 65.136825 -28.948459 74.296488 -11.470723 -27.516804 60.515038 15.079523 -179.125573 -2.971628 106.749898 31.895711 0.523213 -3.637453 -167.450471 88.228257 137.510418 -89.270988 -57.081187 -114.982582 22.470547 28.67107 -15.116383 142.949955 39.981243 -149.853575 90.871683 25.476322 -69.107456 167.831346 11.902204 82.899044 13.865781 -40.470311 18.031546 160.306294 -2.094772 -86.405779 -33.379782 -55.001087 -22.343738 -26.553072 -41.977303 19.341583 -3.640079 -26.923634 -29.955439 157.418861 -10.577313 -126.116902 -108.81564 -60.965671 -71.028229 137.930028 1.963601 -179.115156 -96.222744 56.20082 84.680468 131.644123 38.031764 150.211722 111.673747 -21.162243 114.286325 103.502611 82.790882 76.600266 163.630893 19.424948 -180.0 60.544736 -73.067801 139.336811 21.861913 77.804078 71.097913 21.112796 20.841078 13.187535 -13.822666 -36.547806 46.704065 61.471417 44.895356 -149.518781 129.39953 -51.362883 -163.401759
53.8185 58.985200000000006 36.6197 177.384568 48.382907 177.358608 -9.224065 12.868948 -121.435551 -0.726907 11.526261 123.598577 -13.63797 21.965214 -86.153215 32.903188 -2.222148 41.278245 35.81151 -1.371281 -4.242372 -36.568085 -19.98784 56.144757 -85.65677 66.119968 84.284295 47.811699 -46.302155 55.549158 -126.614424 57.169474 57.399429 147.790303 -51.06048 139.319861 -174.754784 -19.229442 84.980047 -86.999008 23.408995 44.123297 -152.4723 3.735756 108.068218 -115.05978 -70.837911 -171.60694 -18.592574 -25.395809 -35.868556 30.814494 44.494978 37.758027 21.862029 6.653613 -1.238356 144.518186 58.789225 -158.461383 -173.787299 1.169416 -157.169284 -61.992977 18.102068 90.597364 0.768022 13.732043 3.663693 96.980814 -17.571749 170.300417 -6.033411 2.749658 130.498676 146.706744 22.630141 -131.277527 -167.632768 -30.239018 -79.711789 35.218869 -31.474928 -11.016781 145.039516 -36.567262 -140.740992 107.921717 10.851073 -157.562167 -92.237599 -53.726134 -62.557895 144.819145 57.72705 -94.941098 28.994238 -44.784936 65.233409 89.514201 -32.307438 -169.24968 145.90364 44.582538 100.689293 130.915883 44.779267 126.724878 -3.689088 79.957281 -180.0 149.606411 36.523108 119.843287 62.110844 -20.632109 -51.325685 58.014076 -45.381426 -28.173867 -10.89015 0.807646 -2.713811 28.575063 -8.428721 89.392165 59.205785 22.555996 -128.572099 179.405493 -10.222148 -86.842285
53.0722 58.3188 36.4899 178.049852 47.94512 179.77207 -13.055505 15.735443 -95.952933 6.609363 12.975796 95.926175 -3.921579 12.537484 16.342926 -10.199719 -20.988446 -57.857547 49.275889 6.216452 13.504627 -9.825112 -5.565826 58.980294 -140.289486 35.498299 139.561414 -58.203321 47.762543 53.797909 24.656658 -34.433693 -68.717722 171.465371 -12.206262 146.482615 -152.693474 -3.388211 80.951298 -39.409874 -11.38749 8.220254 7.238157 -48.198048 0.039451 51.216073 -3.641266 5.401404 -177.119487 46.797032 166.057055 71.739362 -78.935831 107.645291 11.396683 -3.497224 0.122659 -178.091706 -10.264702 178.013846 -27.71951 -82.066658 -6.025091 140.450811 -10.776992 -132.218392 5.147406 45.843425 -3.15217 103.010047 -18.862456 -156.83389 -0.474873 -7.514347 127.619076 148.77895 12.519343 -130.963442 -104.393022 -44.99482 -36.077008 160.197856 -66.999502 135.915598 168.491217 -13.185217 -129.130536 10.818694 10.639702 72.249518 8.397746 -1.680393 -12.071223 32.80304 69.385865 -57.0636 66.808327 76.9358 -94.102764 76.685587 23.480236 -15.588597 -44.178515 9.489888 19.288198 7.895592 40.74864 -1.112149 2.535776 -4.396845 4.399041 -50.215444 -48.582283 -180.0 -72.370153 -38.238546 -139.38529 -136.668199 -36.559291 134.753597 -156.91322 75.948855 -23.72121 -142.301179 59.442141 -33.27212 3.671086 65.784099 99.282359 -150.081287 29.497486 42.656152
52.082899999999995 58.3466 37.1166 179.948014 44.570912 -177.860431 -15.516917 20.892243 5.038212 11.859605 -12.565404 2.06134 8.989851 23.334235 87.319774 -35.612842 8.528372 -125.020191 27.883153 0.894247 3.601159 -7.623316 -3.760844 52.466612 2.181816 -14.280535 -0.181535 -133.394831 14.006768 178.208577 -7.476833 3.486999 -81.124347 153.589329 -43.482034 132.297088 77.139277 -46.234348 21.218219 35.715462 -58.436614 -6.634486 -148.594696 23.699319 102.274907 128.258582 -78.623392 94.358783 149.174155 63.140794 -154.206781 128.159948 5.047953 149.138798 -135.843764 10.722141 169.716425 29.91213 32.995441 -3.265909 -121.392639 35.566312 161.524748 -75.158297 14.932165 156.230892 6.964923 36.121871 -4.676739 -71.63518 12.17448 -16.855662 94.089437 -22.926346 -71.80331 157.865422 -59.062088 -162.821913 72.890429 29.424731 -52.801271 -43.89391 -65.58497 92.034401 110.375994 42.335712 -66.180553 -150.484294 40.897343 -88.272621 4.382476 -16.70456 8.021665 62.182501 64.528635 -95.1361 26.42448 52.771664 -48.090548 -147.662821 -23.242632 -163.177231 -28.276031 -7.719047 14.482256 44.235129 -40.278146 18.690868 14.681193 2.28664 7.368527 -71.68111 -48.532603 -67.082479 -62.292463 68.857912 -43.834485 124.459487 -41.49426 -141.989677 43.178424 25.511051 37.577464 -41.828002 -16.513127 87.605177 59.513959 -21.720672 -159.886703 93.156913 69.765822 -0.168989
51.519000000000005 59.1294 38.5758 -177.803317 39.245741 -175.219607 -11.937281 23.814307 4.419035 7.301614 -15.33302 6.065642 -7.642701 30.981231 -91.484038 44.392354 10.349937 49.318185 8.449728 -0.8597 -11.598193 -8.688816 -3.574628 44.660834 -81.308549 70.792733 86.1994 76.097025 -48.421934 74.35129 -179.395229 42.577882 94.20228 155.701446 -34.923981 133.358758 118.929268 -53.229168 49.637318 -91.631155 23.929371 68.690456 145.273079 -64.921669 108.764907 -45.026815 65.071109 47.597055 -105.278109 -39.882401 -132.289135 -17.134294 -64.232182 -106.737602 6.533766 -15.453581 7.387553 -179.825024 14.333361 -178.879424 32.612752 -47.660957 28.731195 118.582674 28.501998 -122.670224 12.201487 34.901518 -9.819382 101.600477 -10.77395 -156.408104 -8.559636 4.836945 132.60981 148.224738 17.419708 -118.21369 6.987077 18.489944 -17.506635 152.007351 80.217749 -153.063355 157.264337 12.42672 -107.591967 -140.679833 11.188169 -147.219177 167.319785 16.289841 -150.091356 -37.257167 -84.090786 -53.702248 -64.56095 -85.774344 -49.977213 21.998963 49.618004 -71.199665 126.299505 39.965502 154.424807 152.654509 58.048251 143.159624 1.178627 5.221303 -12.739212 -44.562753 -69.920968 -91.424923 -80.451126 42.736221 174.869695 -158.670019 -9.766982 97.012877 -121.025466 46.074846 -38.822834 171.327642 36.416392 -34.687371 -44.019267 55.615991 109.737978 16.831236 -36.384572 -35.445552
